<svg width="22" height="38" viewBox="0 0 22 38" fill="none" xmlns="http://www.w3.org/2000/svg">
<g clip-path="url(#clip0_43_111)">
<path d="M11.0215 3.47189C14.1472 7.6053 15.8158 12.7025 15.7553 17.9328V19.1813L16.7865 19.835C18.119 20.6752 19.1127 21.9784 19.5866 23.5071C19.1705 23.188 18.7352 22.8961 18.2833 22.6332L15.5333 21.0248L15.0391 24.2709C14.9963 24.5578 14.9389 24.8422 14.8672 25.1229H7.16151C7.04692 24.7557 6.95382 24.3885 6.86789 24.0065L6.24484 21.0688L3.70968 22.5377C3.28615 22.7844 2.87723 23.0566 2.48507 23.3529C2.96824 21.8419 3.94123 20.546 5.24224 19.6808L6.22336 19.0271V17.8667C6.24106 12.6576 7.92967 7.59919 11.0287 3.47189H11.0215ZM11.0287 0.416656C10.868 0.417063 10.7128 0.477058 10.5918 0.585575L10.5274 0.64433C6.39778 5.38086 4.10466 11.5056 4.08208 17.8594C2.32967 19.0253 1.03251 20.7858 0.417263 22.833C-0.197979 24.8802 -0.0921719 27.0841 0.716194 29.0594C1.56776 27.1307 2.99131 25.5269 4.7839 24.4766C4.96368 25.2752 5.2031 26.0585 5.50005 26.8194C5.53771 26.9657 5.62118 27.0952 5.73763 27.1881C5.85408 27.281 5.99706 27.3321 6.14458 27.3335H16.0847C16.2852 27.3335 16.4857 27.1352 16.586 26.8268C16.8758 26.1033 17.0778 25.3461 17.1875 24.5721C18.9836 25.618 20.4083 27.2231 21.2553 29.1549C22.1124 27.1893 22.2451 24.9715 21.6287 22.9132C21.0124 20.8548 19.6888 19.0957 17.9037 17.9622C17.9745 11.571 15.6935 5.38727 11.5157 0.64433C11.4535 0.572995 11.3773 0.515865 11.2922 0.476643C11.2071 0.437422 11.1149 0.416984 11.0215 0.416656L11.0287 0.416656Z" fill="#4EA8DE"/>
<path d="M11.0216 17.2498C10.4715 17.2498 9.93376 17.0828 9.47611 16.7698C9.01846 16.4568 8.6614 16.0119 8.44993 15.4912C8.23847 14.9704 8.18206 14.3971 8.28782 13.8435C8.39358 13.29 8.65678 12.7809 9.04423 12.3805C9.43169 11.9801 9.92606 11.7062 10.465 11.5935C11.004 11.4808 11.5634 11.5343 12.0728 11.7471C12.5822 11.96 13.0188 12.3227 13.3275 12.7896C13.6361 13.2566 13.8031 13.8067 13.8074 14.3708V14.3708C13.8159 14.7364 13.7542 15.1001 13.6256 15.4412C13.4971 15.7822 13.3043 16.094 13.0582 16.3586C12.8121 16.6233 12.5176 16.8356 12.1915 16.9834C11.8654 17.1313 11.5141 17.2118 11.1576 17.2204C11.1126 17.2278 11.0666 17.2278 11.0216 17.2204V17.2498Z" fill="#4EA8DE"/>
<path d="M14.8959 29.1623C14.7167 29.1564 14.5382 29.1873 14.3708 29.2531C14.2034 29.3189 14.0505 29.4184 13.9211 29.5456C13.7917 29.6729 13.6884 29.8253 13.6172 29.9941C13.546 30.1628 13.5084 30.3444 13.5066 30.5283V34.8614C13.5066 35.2393 13.653 35.6017 13.9135 35.8689C14.1741 36.1361 14.5274 36.2862 14.8959 36.2862C15.2644 36.2862 15.6178 36.1361 15.8783 35.8689C16.1389 35.6017 16.2852 35.2393 16.2852 34.8614V30.587C16.291 30.4039 16.2611 30.2214 16.1973 30.0502C16.1336 29.879 16.0372 29.7226 15.9139 29.5899C15.7906 29.4573 15.6428 29.3512 15.4791 29.2778C15.3154 29.2044 15.139 29.1651 14.9604 29.1623H14.8959Z" fill="#5E60CE"/>
<path d="M7.16154 29.1622C6.97931 29.1524 6.797 29.1802 6.62546 29.244C6.45392 29.3079 6.29665 29.4064 6.16302 29.5339C6.02939 29.6613 5.92213 29.815 5.84761 29.9859C5.77309 30.1567 5.73284 30.3412 5.72925 30.5283V34.8614C5.72925 35.2393 5.87562 35.6017 6.13617 35.8689C6.39672 36.1361 6.7501 36.2862 7.11857 36.2862C7.48704 36.2862 7.84042 36.1361 8.10097 35.8689C8.36152 35.6017 8.50789 35.2393 8.50789 34.8614V30.587C8.51362 30.4039 8.48373 30.2214 8.41998 30.0502C8.35623 29.879 8.25989 29.7226 8.13658 29.5899C8.01326 29.4573 7.86544 29.3512 7.70173 29.2778C7.53802 29.2043 7.36169 29.1651 7.18302 29.1622H7.16154Z" fill="#5E60CE"/>
<path d="M10.9213 29.1622C10.7426 29.1583 10.5649 29.1906 10.3984 29.2571C10.2318 29.3237 10.0797 29.4232 9.95068 29.5501C9.82167 29.6769 9.71828 29.8286 9.64644 29.9965C9.5746 30.1643 9.5357 30.345 9.53198 30.5283V36.4992C9.53198 36.8771 9.67836 37.2395 9.93891 37.5067C10.1995 37.7739 10.5528 37.924 10.9213 37.924C11.2898 37.924 11.6432 37.7739 11.9037 37.5067C12.1643 37.2395 12.3106 36.8771 12.3106 36.4992V30.6238C12.3164 30.4406 12.2865 30.2581 12.2227 30.0869C12.159 29.9157 12.0626 29.7593 11.9393 29.6267C11.816 29.494 11.6682 29.3879 11.5045 29.3145C11.3408 29.2411 11.1644 29.2018 10.9858 29.199L10.9213 29.1622Z" fill="#5E60CE"/>
</g>
<defs>
<clipPath id="clip0_43_111">
<rect width="22" height="37.5" fill="white" transform="translate(0 0.416656)"/>
</clipPath>
</defs>
</svg>
